<?xml version="1.0" encoding="UTF-8" standalone="no"?>
<svg
   width="1011.734"
   height="989.734"
   viewBox="0 0 1011.735 989.735"
   version="1.1"
   id="svg46"
   xmlns:xlink="http://www.w3.org/1999/xlink"
   xmlns="http://www.w3.org/2000/svg"
   xmlns:svg="http://www.w3.org/2000/svg"
   xmlns:rdf="http://www.w3.org/1999/02/22-rdf-syntax-ns#"
   xmlns:cc="http://creativecommons.org/ns#"
   xmlns:dc="http://purl.org/dc/elements/1.1/">
  <title
     id="title46">Hampuu</title>
  <defs
     id="defs2">
    <linearGradient
       xlink:href="#a"
       id="c"
       gradientUnits="userSpaceOnUse"
       gradientTransform="matrix(-.7842 0 0 .7842 883.377 4.096)"
       x1="491"
       y1="69.927"
       x2="669.125"
       y2="27.927" />
    <linearGradient
       id="a">
      <stop
         style="stop-color:#aeafb2;stop-opacity:1"
         offset="0"
         id="stop1" />
      <stop
         style="stop-color:#aeafb2;stop-opacity:0"
         offset="1"
         id="stop2" />
    </linearGradient>
    <linearGradient
       xlink:href="#a"
       id="b"
       x1="717.659"
       y1="24.387"
       x2="917.627"
       y2="145.387"
       gradientUnits="userSpaceOnUse"
       gradientTransform="matrix(-.7842 0 0 .7842 883.377 4.096)" />
  </defs>
  <g
     fill="none"
     fill-rule="evenodd"
     id="g13">
    <path
       d="M867.57 260.022c-4.332-1.078-11.398-1.598-39.806-1.598-9.173 0-19.6.054-30.687.108-12.514.062-25.875.129-39.21.129-21.438 0-51.459-.154-72.822-1.378-34.215-24.862-73.63-38.132-117.244-39.448-94.514-2.894-178.196 37.945-223.51 108.146-15.314 14.556-44.126 30.74-51.917 32.469-13.06 2.902-21.521 14.336-20.11 27.18 1.017 9.261 7.604 19.666 22.301 24.505a70.274 70.274 0 0 0-4.815 5.225c-9.961 11.996-14.127 25.632-11.732 38.403a46.08 46.08 0 0 0 2.008 7.336c-21.546 36.658-32.882 78.27-32.882 121.053 0 10.805.729 21.556 2.174 32.203a59.785 59.785 0 0 0-10.206-.887c-16.39 0-31.583 7.103-41.673 19.486-11.144 13.682-15.052 31.986-11.002 51.54 8.244 39.826 68.61 106.967 116.744 118.517 4.74 1.132 9.27 1.711 13.456 1.711 12.877 0 23.513-5.425 29.958-15.277 2.045-3.13 3.524-6.454 4.549-9.851 32.849 22.642 70.822 36.666 111.049 40.738 8.715 28.422 32.116 33.16 46.718 33.16 22.013 0 41.03-8.943 54.591-25.432 1.225.017 2.454.03 3.687.03 9.307 0 20.872-.638 34.103-2.678-42.352 47.5-103.534 74.836-148.585 74.844h-.013c-18.989 0-44.497-4.843-58.203-27.885-18.135-30.487-47.205-49.428-75.859-49.428-30.1 0-51.013 21.24-52.033 52.847-.554 17.108 8.415 35.716 25.941 53.804 29.483 30.433 86.653 61.14 147.927 61.14 13.54 0 26.808-1.515 39.435-4.505 108.583-25.703 205.872-112.592 234.172-208.159 103.641-79.136 95.426-296.693 61.081-393.696a325.88 325.88 0 0 0-7.72-19.766c4.18.483 8.312.725 12.378.725 9.494 0 18.743-1.333 27.496-3.956 53.87-16.151 78.208-56.12 77.7-78.05-.266-11.575-7.115-20.723-17.439-23.305"
       fill="#000"
       id="path2" />
    <path
       d="M43.152 25.335c-2.849-2.553-4.813-4.122-7.638-4.706-1.9-.393-4.166.11-6.165.553-1.515.336-2.824.627-3.842.52-1.564-.165-2.804-.988-3.157-2.097-.25-.781-.18-2.033 1.56-3.564.723-.637 1.59-1.169 2.539-1.602-1.37.003-2.723-.26-4.024-.95-1.68 2.331-5.944 4.02-7.256 3.438a3.039 3.039 0 0 1-.918-.661c-.028.022-.054.046-.083.068.346.324.599.778.708 1.309.22 1.075-.156 2.226-1.008 3.077-.742.742-1.677 1.168-2.564 1.168-.62 0-1.15-.216-1.547-.593a18.677 18.677 0 0 0-2.775 9.812c0 1.676.224 3.298.636 4.844 1.762 1.451 4.663 7.217 5.296 8.663.035.08.074.18.114.295a18.754 18.754 0 0 0 11.305 4.943c-.055-.719-.03-1.485-.005-2.242.03-.927.062-1.887-.059-2.674-.1-.649-.266-1.344-.443-2.08-.657-2.746-1.402-5.858 1.224-7.608a2.892 2.892 0 0 1 1.627-.506c2.36 0 4.506 2.845 5.613 5.007 1.507-2.438 3.984-3.985 6.93-4.283 1.492-.152 2.98.042 4.208.496.433-1.574.655-3.204.655-4.855a18.25 18.25 0 0 0-.93-5.772"
       fill="#005683"
       style="fill:#32a3cf;fill-opacity:1"
       transform="translate(183.958 217.132) scale(11.73425)"
       id="path3" />
    <path
       d="M30.93 20.846c-.538.105-1.068.222-1.581.336-1.515.336-2.824.627-3.842.52-1.564-.165-2.804-.988-3.157-2.097-.25-.781-.18-2.033 1.56-3.564.024-.022.053-.042.078-.064-1.12-.365-2.3-.598-3.521-.68-1.93 1.303-4.363 2.045-5.298 1.63a3.038 3.038 0 0 1-.917-.66 3.898 3.898 0 0 1-.083.068c.346.324.598.777.707 1.308.22 1.075-.156 2.226-1.008 3.077-.742.742-1.677 1.168-2.564 1.168-.621 0-1.151-.216-1.548-.593a18.683 18.683 0 0 0-2.774 9.812c0 1.674.22 3.297.633 4.841 1.181.97 2.876 3.885 4.056 6.138a14.476 14.476 0 0 0 7.797 2.269c1.586 0 3.111-.257 4.54-.726-.058-.253-.118-.51-.182-.773-.657-2.746-1.402-5.858 1.225-7.608a2.892 2.892 0 0 1 1.626-.506c1.815 0 3.5 1.683 4.687 3.443a14.472 14.472 0 0 0 2.66-8.379c0-3.382-1.157-6.49-3.095-8.96"
       fill="#00709c"
       style="fill:#ed1c24;fill-opacity:1"
       transform="translate(183.958 217.132) scale(11.73425)"
       id="path4" />
    <path
       d="M557.257 716.155c-.067-.263-.125-.517-.192-.783a199.384 199.384 0 0 0-1.995-7.357c-6.187-22.268-35.607-66.554-58.078-66.554-3.454 0-6.674 1.028-9.845 3.14-19.676 13.115-15.705 36.84-7.394 71.537 2.054 8.582 4.178 17.459 5.453 25.745 1.662 10.78 1.258 22.825.87 34.467-.6 18.08-1.22 36.779 6.579 44.836 3.412 3.526 8.728 5.242 16.256 5.242 2.178 0 4.228-.163 6.211-.412.604-.075 1.175-.188 1.758-.283 1.383-.225 2.72-.5 4.008-.833a39.367 39.367 0 0 0 5.553-1.874c.363-.15.746-.283 1.1-.441a40.553 40.553 0 0 0 4.508-2.39c.137-.088.262-.188.4-.275a41.05 41.05 0 0 0 3.557-2.544c.33-.262.642-.533.963-.804.92-.778 1.8-1.586 2.633-2.415.279-.279.566-.558.837-.84a49.165 49.165 0 0 0 2.641-3.015c.096-.121.204-.234.296-.354a51.842 51.842 0 0 0 2.554-3.544c.187-.279.35-.562.525-.837a59.785 59.785 0 0 0 1.583-2.64 61.432 61.432 0 0 0 1.77-3.402c.213-.445.438-.894.638-1.336.283-.62.529-1.216.779-1.815a65.821 65.821 0 0 0 1.387-3.581c.025-.062.05-.129.07-.187.275-.8.525-1.558.742-2.261.946-3.077 1.375-5.234 1.437-5.596.062-.359.15-.733.263-1.075 6.244-19.757 8.752-36.374 3.666-60.836a180.71 180.71 0 0 0-1.533-6.683"
       fill="#ffd200"
       id="path5" />
    <path
       d="M316.637 792.23c-3.208 0-6.753-.457-10.54-1.365-42.264-10.143-100.11-73.57-107.425-108.903-3.27-15.802-.266-30.408 8.457-41.117 7.712-9.46 19.368-14.886 31.983-14.886 11.356 0 22.896 4.26 33.374 12.317 20.576 15.818 55.478 85.165 63.01 102.37 3.133 7.157 9.353 28.643.638 41.967-2.87 4.388-8.586 9.618-19.497 9.618zm-77.525-153.78c-8.97 0-16.89 3.652-22.284 10.277-6.312 7.748-8.411 18.65-5.916 30.703 6.366 30.754 61.057 90.4 98.101 99.285 2.829.679 5.395 1.025 7.624 1.025 5.774 0 7.924-2.261 9.04-3.964 4.516-6.908 1.954-21.93-1.629-30.117-10.256-23.43-42.76-84.853-59.186-97.486-8.27-6.362-17.172-9.722-25.75-9.722Z"
       fill="#000"
       id="path6" />
    <path
       d="M216.828 648.727c-6.312 7.748-8.411 18.65-5.916 30.703 6.366 30.754 61.057 90.4 98.101 99.285 2.829.679 5.395 1.025 7.624 1.025 5.774 0 7.924-2.261 9.04-3.964 4.516-6.908 1.954-21.93-1.629-30.117-10.256-23.43-42.76-84.853-59.186-97.486-8.27-6.362-17.172-9.722-25.75-9.722-8.97 0-16.89 3.651-22.284 10.276"
       fill="#ffd200"
       id="path7" />
    <path
       d="M316.6 473.97c-13.615 0-23.693-8.628-26.3-22.518-1.696-9.044 1.524-19.029 9.065-28.114 9.794-11.792 25.254-20.353 36.76-20.353 2.592 0 4.975.425 7.079 1.266 7.653 3.06 13.377 10.501 15.31 19.903 2.595 12.62-1.825 26.123-11.828 36.116-8.707 8.707-19.676 13.7-30.087 13.7zm19.526-58.493c-6.729 0-19.018 6.054-27.142 15.839-2.966 3.576-7.749 10.646-6.395 17.837 1.912 10.185 8.674 12.325 14.01 12.325 7.016 0 14.96-3.752 21.251-10.043 7.02-7.016 10.17-16.272 8.424-24.77-1.083-5.276-3.966-9.319-7.711-10.814-.613-.245-1.454-.374-2.437-.374z"
       fill="#000"
       id="path8" />
    <path
       d="M302.59 449.153c1.911 10.185 8.673 12.325 14.01 12.325 7.015 0 14.96-3.752 21.25-10.043 7.02-7.016 10.17-16.272 8.424-24.77-1.083-5.276-3.966-9.319-7.711-10.814-.613-.245-1.454-.374-2.437-.374-6.729 0-19.018 6.054-27.142 15.839-2.966 3.576-7.749 10.646-6.395 17.837"
       fill="#ffd200"
       id="path9" />
    <path
       d="M757.659 283.648c-24.88 0-60.512-.209-82.612-1.999-1.925-.154-3.625-.154-4.724-.062 1.628 2.66 5.624 7.32 12.006 12.637l1.608 1.361c43.414 36.995 76.092 44.765 95.86 44.769h.008c7.062 0 13.894-.978 20.322-2.906 30.5-9.144 49.234-28.035 56.591-42.662 2.745-5.467 3.304-9.056 3.304-10.743-4.15-.42-14.94-.633-32.162-.633-9.165 0-19.589.05-30.674.109-12.61.062-26.084.129-39.527.129M297.798 382.837c-.583.129-.762.329-.766.329.058-.021.429.679 1.812 1.611 2.533 1.712 12.856 6.52 40.81-.945-.858-6.479-.533-14.56 2.279-24.162-16.335 11.354-34.757 21.085-44.135 23.167M686.79 781.143c-12.493 7.461-24.733 13.399-36.477 18.046-38.544 70.484-122.272 124.642-194.919 126.02-37.523.616-66.593-13.524-82.387-40.068-17.718-29.783-44.78-40.78-62.386-36.25-11.798 3.04-18.56 12.875-19.038 27.702-.421 13.008 11.069 30.362 30.732 46.426 35.353 28.888 96.018 52.114 151.826 38.898 96.476-22.834 183.13-97.366 212.65-180.774"
       fill="#f80"
       id="path10" />
    <path
       d="M751.593 392.71c-6.986-19.733-15.568-37.691-25.508-53.834-14.94-7.274-31.741-18.008-50.26-33.785l-1.495-1.274c-20.476-17.047-17.651-24.837-16.726-27.398.741-2.052 2.058-3.655 3.874-4.855-27.758-17.766-59.624-27.705-94.43-28.755-86.5-2.619-162.308 34.168-202.831 98.403-11.078 17.567-14.906 33.53-11.06 46.176 2.799 9.21 9.223 14.89 13.872 16.955 7.874 3.506 57.97-13.874 72.526-40.326a6.261 6.261 0 0 1 3.883-3.027 6.261 6.261 0 0 1 4.87.72c34.178 21.019 72.597 11.409 105.916.754a6.253 6.253 0 0 1 7.857 4.047c.563 1.765.28 3.585-.591 5.067 22.021-.579 44.118 2.777 63.59 10.46a6.245 6.245 0 0 1 3.516 8.102 6.242 6.242 0 0 1-8.107 3.514c-47.91-18.895-112.79-9.639-147.718 21.086-11.978 10.534-17.181 20.71-14.648 28.65 2.604 8.162 13.227 14.582 26.446 15.969 9.936 1.032 25.054-2.311 41.072-5.867 24.684-5.476 52.671-11.684 77.58-6.529 40.368 8.348 67.152 32.552 107.687 69.19l4.94 4.463a6.244 6.244 0 0 1 .446 8.819 6.216 6.216 0 0 1-4.636 2.06c-1.417 0-2.817-.515-3.975-1.477 4 17.004 6.054 34.463 6.054 52.134a226.9 226.9 0 0 1-8.69 62.273c6.436 3.64 11.843 8.012 15.718 13.025a6.237 6.237 0 0 1-1.121 8.756c-2.725 2.111-6.661 1.612-8.765-1.12-10.794-13.961-38.286-22.097-65.444-19.361-19.776 2.002-55.812 11.47-76.234 52.022.78 2.082 1.425 4.01 1.896 5.704 10.706 36.674 8.173 58.926.078 84.716-.795 4.351-2.337 9.54-4.645 14.944 27.5.078 76.042-5.959 127.697-41.505 97.8-67.303 89.198-279.001 57.366-368.897"
       fill="#ffd200"
       id="path11" />
    <path
       d="M864.538 272.143c-3.02-.758-10.215-1.224-36.678-1.224-9.182 0-19.626.05-30.737.108-12.594.063-26.037.13-39.464.13-23.005 0-55.254-.18-77.055-1.624-32.311-24.304-70.668-37.928-113.182-39.215-90.648-2.777-170.306 35.954-213.316 103.536-16.543 16.318-48.338 34.414-59.016 36.791-4.945 1.095-8.673 4.414-9.99 8.87-1.325 4.509.1 9.443 3.804 13.194 3.395 3.423 10.46 7.703 24.596 7.703 7.603 0 17.285-1.266 29.508-4.538 4.59 10.4 12.502 17.021 18.947 19.886 15.397 6.833 65.431-12.991 85.145-40.355 15.264 8.098 31.145 11.188 47.217 11.163-11.144 5.075-21.309 11.32-29.804 18.795-20.417 17.958-21.217 32.652-18.297 41.82 4.146 13.017 18.693 22.668 37.045 24.6 11.948 1.266 27.304-2.148 45.084-6.095 23.463-5.201 50.059-11.097 72.343-6.492 33.144 6.854 56.195 25.266 89.631 55.224 7.245 21.777 10.92 44.56 10.92 67.732a214.67 214.67 0 0 1-7.687 56.965c-14.398-5.33-31.866-7.6-49.371-5.821-34.57 3.501-63.64 21.647-81.329 50.265-12.99-25.378-38.165-58.755-65.86-58.755-6.753 0-13.177 1.998-19.085 5.937-30.824 20.536-22.075 57.052-14.364 89.267 2.07 8.64 4.024 16.801 5.195 24.408 1.42 9.244 1.045 20.499.687 31.379-.716 21.551-1.458 43.831 11.253 56.968 6.624 6.845 16.122 10.318 28.233 10.318 25.046 0 41.239-13.041 50.946-27.618 2.212.083 4.553.141 7.111.141 16.118 0 38.84-2.02 64.994-9.993-39.081 60.7-112.599 105.889-176.805 107.109-23.026.5-54.233-5.1-71.41-33.968-20.86-35.063-54.154-47.659-76.242-41.958-17.397 4.476-27.75 18.84-28.412 39.393-.554 17.121 12.319 37.715 35.311 56.498 30.229 24.695 77.896 45.493 126.497 45.493 12.064 0 24.192-1.282 36.123-4.105C583.02 948.98 677.701 863.602 703.188 770.533c57.324-40.934 75.571-122.298 80.737-183.71 6.583-78.286-5.578-155.999-20.55-198.282a304.853 304.853 0 0 0-18.452-41.879c13.923 4.668 25.65 6.183 34.874 6.183h.008c8.278 0 16.318-1.157 23.913-3.43 48.75-14.62 69.147-50.645 68.797-65.796-.137-5.971-3.124-10.264-7.977-11.476Zm-524.884 111.69c-27.954 7.465-38.277 2.656-40.81.944-1.383-.932-1.754-1.632-1.812-1.611.004 0 .183-.2.766-.329 9.378-2.082 27.8-11.813 44.135-23.167-2.812 9.601-3.137 17.683-2.279 24.162zm215.47 399.841c-.113.342-.2.716-.262 1.075-.305 1.698-7.857 41.679-45.951 41.679-7.528 0-12.844-1.716-16.256-5.242-7.799-8.057-7.178-26.757-6.578-44.836.387-11.642.791-23.687-.871-34.467-1.275-8.286-3.4-17.163-5.453-25.745-8.311-34.697-12.282-58.422 7.394-71.538 3.17-2.11 6.391-3.14 9.845-3.14 22.471 0 51.891 44.287 58.078 66.555 9.67 33.135 7.482 52.15.054 75.66zm-80.983 178.243c-55.808 13.216-116.473-10.01-151.826-38.898-19.663-16.064-31.153-33.418-30.732-46.426.479-14.827 7.24-24.662 19.038-27.702 17.606-4.53 44.668 6.467 62.386 36.25 15.794 26.544 44.864 40.684 82.387 40.068 72.647-1.378 156.375-55.536 194.92-126.02 11.743-4.647 23.983-10.585 36.477-18.046-29.52 83.408-116.174 157.94-212.65 180.774zm277.452-569.208c31.832 89.896 40.435 301.594-57.366 368.897-51.654 35.546-100.197 41.584-127.696 41.505 2.308-5.405 3.849-10.593 4.645-14.944 8.094-25.79 10.627-48.041-.079-84.716-.47-1.695-1.116-3.622-1.895-5.704 20.421-40.551 56.457-50.02 76.233-52.022 27.159-2.736 54.65 5.4 65.444 19.361 2.104 2.732 6.04 3.231 8.765 1.12a6.237 6.237 0 0 0 1.121-8.756c-3.874-5.013-9.282-9.385-15.718-13.024a226.9 226.9 0 0 0 8.69-62.274c0-17.67-2.054-35.13-6.053-52.134 1.158.962 2.558 1.478 3.974 1.478a6.216 6.216 0 0 0 4.637-2.061 6.244 6.244 0 0 0-.446-8.82l-4.94-4.463c-40.536-36.637-67.32-60.84-107.688-69.189-24.908-5.155-52.896 1.053-77.58 6.529-16.018 3.556-31.136 6.9-41.072 5.867-13.219-1.387-23.842-7.807-26.446-15.968-2.533-7.94 2.67-18.117 14.648-28.651 34.928-30.725 99.81-39.98 147.718-21.086a6.242 6.242 0 0 0 8.107-3.514 6.245 6.245 0 0 0-3.516-8.103c-19.472-7.682-41.568-11.038-63.59-10.459.871-1.482 1.154-3.302.592-5.067a6.253 6.253 0 0 0-7.857-4.047c-33.32 10.655-71.739 20.265-105.917-.754a6.261 6.261 0 0 0-4.87-.72 6.261 6.261 0 0 0-3.883 3.027c-14.556 26.452-64.652 43.832-72.526 40.326-4.649-2.065-11.073-7.745-13.872-16.955-3.846-12.645-.017-28.61 11.06-46.176 40.523-64.235 116.332-101.022 202.83-98.403 34.808 1.05 66.673 10.989 94.432 28.755-1.817 1.2-3.133 2.803-3.875 4.855-.925 2.561-3.75 10.352 16.727 27.398l1.495 1.274c18.518 15.777 35.32 26.51 50.259 33.785 9.94 16.143 18.522 34.101 25.508 53.833zm105.125-97.923c-7.357 14.627-26.092 33.518-56.591 42.662-6.428 1.928-13.26 2.906-20.322 2.906h-.008c-19.768-.004-52.446-7.774-95.86-44.769l-1.608-1.361c-6.382-5.317-10.378-9.977-12.006-12.637 1.1-.092 2.8-.092 4.724.062 22.1 1.79 57.732 1.999 82.612 1.999 13.443 0 26.916-.067 39.527-.13 11.085-.058 21.509-.108 30.674-.108 17.222 0 28.012.213 32.162.633 0 1.686-.559 5.276-3.304 10.743z"
       fill="#000"
       id="path12" />
    <path
       d="M433.923 330.94c-9.936 7.449-6.941 16.659 4.166 18.045 11.11 1.387 11.977 2.124 22.221-5.554 11.107-8.328 12.498-22.21 0-20.819-12.498 1.39-20.83 4.164-26.387 8.328M404.76 336.494c0 6.9-5.594 12.491-12.498 12.491-6.898 0-12.498-5.591-12.498-12.49 0-6.9 5.6-12.492 12.498-12.492 6.904 0 12.498 5.592 12.498 12.491M549.183 301.798c0 6.899-5.595 12.49-12.498 12.49s-12.498-5.591-12.498-12.49c0-6.9 5.595-12.492 12.498-12.492s12.498 5.592 12.498 12.492"
       fill="#000"
       id="path13" />
  </g>
  <path
     style="fill:#010101;fill-opacity:1;stroke:#010101;stroke-width:.96;stroke-opacity:1"
     d="m388.797 565.298-3.106-1.89.63-17.464c1.847-51.12 4.395-140.188 4.023-140.56-.236-.236-3.812.36-7.947 1.325-5.456 1.273-11.202 1.743-20.957 1.714-17.362-.052-23.968-1.77-28.924-7.522-6.54-7.591-14.652-26.948-21.364-50.981-2.762-9.89-9.143-35.862-10.525-43.92-1.049-3.526-1.367-5.657-1.952-8.656l-1.075-5.056 11.263-2.207c6.194-1.213 11.467-2.411 11.718-2.662.703-.703-8.21-18.147-13.432-26.288-13.194-22.564-3.46-5.38-11.709-20.79 1.98-.813 4.748-2.562 6.15-3.884 2.733-2.576 8.38-3.892 27.69-6.45 22.6-2.995 41.664-3.879 56.505-2.62 7.73.655 16.647 1.73 19.815 2.39l5.76 1.197 7.487-6.363c17.914-15.222 35.858-22.17 49.815-19.288 8.766 1.81 17.034 5.914 21.16 10.5 7.309 8.126 16.424 30.215 23.841 57.777 2.425 9.01 4.253 13.615 7.338 18.482 3.38 5.332 4.7 8.908 7.443 20.16 1.833 7.523 5.071 20.806 7.196 29.518 2.124 8.712 4.74 19.944 5.815 24.96 12.55 58.592 17.13 89.458 17.957 121.008.577 22.042.26 23.584-5.8 28.206-6.163 4.7-43.529 22.935-61.132 29.832-21.963 8.605-24.738 9.514-44.097 14.453-4.981 1.271-9.496 2.75-10.032 3.286-.536.536-2.164.975-3.616.975-1.453 0-5.084.636-8.07 1.414-3.701.964-10.097 1.395-20.095 1.354-12.828-.053-15.055-.297-17.773-1.95zm35.84-1.331c3.08-.774 6.773-1.407 8.209-1.407 1.435 0 3.049-.439 3.585-.975s5.05-2.015 10.032-3.286c14.069-3.589 22.902-6.22 29.697-8.845 25.777-9.96 27.629-10.766 49.44-21.542 24.165-11.938 28.382-14.59 30.878-19.418 3.42-6.614-.52-55.617-7.425-92.334-5.074-26.982-9.21-46.505-14.744-69.6-1.329-5.544-4.338-18.123-6.688-27.954-3.765-15.752-4.769-18.658-8.46-24.48-3.173-5.004-4.971-9.516-7.418-18.606-7.417-27.562-16.532-49.65-23.842-57.777-3.978-4.424-12.075-8.528-20.513-10.4-12.157-2.696-30.05 4.908-48.094 20.438l-6.657 5.73-7.839-1.54c-15.688-3.083-30.574-3.89-47.678-2.587-16.783 1.28-31.158 3.007-43.53 5.233-5.486.987-8.22 2.007-10.08 3.76-1.402 1.322-2.608 2.883-4.588 3.697 5.824 9.635 2.6 5.458 10.25 17.3 5.5 8.571 14.348 26.24 14.348 28.647 0 1.328-2.235 2.053-12 3.895-4 .755 10.362-2.226-10.08 1.956.335 5.514 1.12 8.193 1.922 12.128 7.115 27.921 14.084 68.786 29.695 91.283 3.74 5.061 8.448 7.273 18.783 8.821 9.103 1.364 20.027.668 31.127-1.983 11.022-2.633 11-2.637 10.269 1.93-.335 2.096-1.449 30.932-2.475 64.08-1.027 33.148-2.141 67.272-2.477 75.832l-.612 15.563 2.886 1.755c3.869 2.353 25.697 2.792 34.08.686zM394.942 522c.912-43.68 3.882-117.13 4.947-122.315.307-1.495 3.308-3.6 10.726-7.527 18.328-9.7 30.398-19.37 75.992-60.875 19.47-17.725 23.824-21.257 25.895-21.015 2.417.284 2.65.946 8.03 22.852 16.04 65.302 24.478 115.935 25.44 152.643l.515 19.684-9.003 4.938c-47.818 26.225-101.676 43.535-135.455 43.535h-7.753zm20.43 28.986c36.568-4.938 79.1-19.985 120.197-42.524l9.009-4.94-.533-17.761c-.804-26.77-5.465-59.669-14.67-103.545-5.179-24.69-15.692-68.452-16.71-69.555-.394-.428-11.253 8.813-24.13 20.535-45.603 41.513-57.671 51.181-76 60.882-7.418 3.926-10.42 6.032-10.726 7.527-1.014 4.938-3.975 77.328-4.945 120.875l-.657 29.52h5.828c3.205 0 9.206-.456 13.337-1.014zm-70.251-151.92c-5.63-1.386-5.438-.144-3.013-19.38 3.324-26.363.903-51.295-7.583-78.095-5.667-17.896-16.101-39.303-24.847-50.978-1.362-1.818-2.477-4.266-2.477-5.44 0-2.503 1.482-2.902 25.44-6.856 13.613-2.247 18.035-2.537 38.88-2.555 20.611-.017 24.695.237 33.02 2.06l9.499 2.082 7.3-6.752c9.12-8.435 20.673-15.658 29.209-18.262 9.392-2.866 21.53-2.26 27.753 1.387 10.27 6.019 20.143 28.801 30.15 69.57 1.849 7.53 3.223 14.523 3.055 15.542-.5 3.035-65.278 61.218-83.192 74.723-10.913 8.227-28.75 17.351-40.954 20.95-7.296 2.15-10.88 2.596-23.04 2.866-9.236.206-16.121-.104-19.2-.862zm40.32-3.94c12.17-3.567 30.018-12.69 40.954-20.934 11.408-8.6 57.159-48.794 82.204-72.219 1.005-.94.434-4.31-3.03-17.886-7.454-29.21-14.358-48-21.418-58.294-11.774-17.168-36.362-13.405-60.943 9.327-4.044 3.74-8.148 6.794-9.12 6.787-.972-.007-5.871-.888-10.887-1.957-19.239-4.104-45.568-3.558-75.959 1.572-19.379 3.272-18.772 2.995-15.663 7.146 4.746 6.336 13.067 21.192 17.332 30.944 14.23 32.538 19.358 66.708 15.264 101.713-.785 6.706-1.54 12.728-1.68 13.382-.924 4.333 28.607 4.62 42.946.419z"
     transform="translate(107.627 78.639) scale(1.32226)"
     id="path14" />
  <path
     style="fill:#010101;fill-opacity:1;stroke:#010101;stroke-width:.25;stroke-linejoin:round;stroke-opacity:1;paint-order:markers fill stroke"
     d="M403.677 564.561c-7.517-.254-11.243-.902-13.726-2.387-.838-.5-1.559-.936-1.601-.968-.043-.03-.402-4.484-.187-9.895.465-11.694.614-30.922 1.64-63.464 1.71-54.178 2.456-74.127 3.04-81.306.286-3.514 1.278-3.705.817-4.215-.436-.483-.675-.523-2.483-.418-1.1.064-3.968.577-6.375 1.14-10.584 2.476-16.201 3.152-24.75 2.978-4.843-.1-6.533-.235-9.625-.776-6.418-1.124-9.966-2.354-12.974-4.5-1.988-1.42-3.071-2.631-5.02-5.616-8.525-13.06-14.79-31.22-23.256-67.412-1.19-5.088-3.198-12.324-4.138-16.243-.94-3.919-2.074-8.439-2.357-9.882-.55-2.8-1.066-7.045-.912-7.2.127-.126 7.22-1.85 10.782-2.473 3.538-.619 8.572-1.414 9.755-1.914 1.401-.592 1.832-1.223 1.69-2.477-.164-1.463-2.01-5.726-5.327-12.311-3.606-7.156-6.275-10.963-10.479-17.691-1.89-3.025-4.455-7.32-5.592-9.383-1.137-2.062-2.384-3.952-2.51-4.533l-.663-1.269.588-.885c.246-.37 1.773-1.098 2.736-2.005 2.099-1.978 3.117-2.453 5.258-3.172 4.233-1.422 18.922-4.804 34.294-6.42 28.455-2.992 42.773-1.997 64.697 2.262 5.253 1.02 5.872 1.988 6.25 1.668.236-.2 2.435-3.013 4.428-4.723 11.778-10.105 18.478-13.13 27.322-17.568 8.03-4.028 17.742-5.775 23.303-4.419 8.35 2.036 17.137 7.226 20.682 11.476 6.755 8.1 15.475 27.786 22.19 51.787 3.775 13.498 5.089 18.843 8.246 23.868 3.188 5.075 5.522 8.235 7.963 17.882 1.784 7.048 7.602 36.154 10.166 47.25 3.628 15.71 9.48 41.423 12.481 57.875 3.587 19.661 5.813 41.631 7.31 62.25.544 7.47 1.126 23.615.635 26.266-1.058 5.71-5.582 8.873-28.061 20.115-19 9.502-26.07 13.211-37.737 17.878-20.16 8.064-25.085 8.507-43.375 13.333-7.994 2.11-10.33 2.835-12.625 3.918-1.253.591-2.282.874-3.625.997-2.136.196-4.345.573-8.575 1.466-4.917 1.038-11.654 1.408-20.3 1.116zm9.314-10.582c27.027-2.545 62.475-14.225 98.061-30.522 9.031-4.136 35.44-18.281 34.833-19.718-.89-2.11-.406-15.188-.847-24.267-1.824-37.567-11.053-91.131-27.153-155-3.112-12.348-2.655-14.077-4.526-14.638-2.842-.852-3.796 1.062-29.807 24.64-33.52 30.386-46.98 40.535-58.903 48.538-4.8 3.221-7.508 4.847-14.097 8.458-9.137 5.008-10.147 6.446-10.464 8.646-1.292 8.966-4.085 85.947-5.03 136.106-.142 7.493-1.299 14.808-1.349 16.1l-.091 2.352 7.655-.156c4.21-.086 9.483-.328 11.718-.539zm-43.334-153.634c8.31-.371 11.07-.78 17.257-2.55 13.217-3.783 31.184-14.086 42.896-23.199 16.426-12.78 61.446-57.006 77.715-69.113l3.349-3.297-.282-2.045c-.425-3.09-.574-10.815-3.45-21.92-8.061-31.132-16.147-50.718-24.384-59.068-3.133-3.177-5.78-4.628-10.462-5.739-2.701-.64-3.219-.68-8.869-.686-6.443-.006-8.306.212-12.684 1.481-6.03 1.749-13.387 6.725-20.69 12.21-3.377 2.536-6.223 4.66-11.236 9.277-2.33 2.145-3.801 4.15-4.036 4.15-.234 0-3.747.298-5.514-.102-10.342-2.34-12.404-4.077-22.09-4.433-8.402-.308-31.438-.133-37.625.286-5.21.353-11.587 1.216-22.363 3.024-14.984 2.516-18.31 3.287-19.837 4.602-.58.5-.673.767-.661 1.915.018 1.808 1.412 3.372 4.147 7.268 4.025 5.735 7.18 11.407 11.314 19.67 12.127 24.244 18.685 49.211 20.42 74.376.384 5.553.161 21.66-.37 26.776-.213 2.065-.794 7.015-1.289 11-.495 3.984-.914 8.425-.933 9.869-.05 3.998.438 4.556 4.83 5.514 4.238.926 14.068 1.216 24.847.734z"
     transform="translate(107.627 78.639) scale(1.32226)"
     id="path15" />
  <path
     style="fill:#fdee21;fill-opacity:1;stroke:#010101;stroke-width:.353553;stroke-linejoin:round;stroke-opacity:1;paint-order:markers fill stroke"
     d="M353.326 397.245c-4.446-.302-7.58-.824-8.952-1.49-1.191-.58-1.19-.945.06-11.399 1.3-10.879 1.642-16.364 1.642-26.34.002-25.359-4.492-48.622-14.036-72.655-4.606-11.599-13.08-27.485-19.287-36.163-1.153-1.611-2.012-3.147-1.91-3.412.25-.652 4.693-1.64 15.083-3.353 22.812-3.762 40.835-5.152 56.075-4.326 9.221.5 13.422 1.029 23.005 2.895 3.961.771 7.843 1.402 8.628 1.402 1.852 0 3.958-1.43 10.226-6.947 8.08-7.11 13.702-11.087 20.423-14.446 14.272-7.134 26.983-6.858 35.412.77 6.27 5.675 13.169 20.597 19.793 42.812 3.835 12.862 8.346 30.757 8.725 34.61l.203 2.068-3.652 3.324c-2.009 1.829-7.073 6.45-11.254 10.27-27.517 25.143-61.833 54.798-70.19 60.656-6.902 4.838-17.116 10.521-25.446 14.158-11.991 5.234-18.654 6.804-32.173 7.58-6.536.375-6.664.375-12.375-.014zM396.993 547.61c.014-17.91 2.683-98.414 4.24-127.899.766-14.507 1.056-17.625 1.726-18.55.909-1.256 3.674-3.053 10.118-6.577 18.933-10.356 27.562-17.222 71.948-57.246 20.319-18.323 26.902-23.955 27.408-23.45.576.576 9.175 36.187 13.771 57.033 12.053 54.657 17.12 91.614 17.547 127.98l.05 4.238-4.374 2.422c-39.298 21.764-77.11 36.167-112.385 42.807-10.614 1.998-19.658 3.031-26.605 3.038l-3.447.004z"
     transform="translate(107.627 78.639) scale(1.32226)"
     id="path16" />
  <path
     d="M0 0c-.014 2.058-.066 6.196-.066 6.196a3.371 3.371 0 0 1-6.743 0C-6.821 4.315-6.868.577-6.868.577c-3.631.432-7.157 1.034-10.626 1.671 1.49 4.114 2.243 7.396 2.555 12.071 7.682-.008 23.016 0 23.016 0 .329-4.87 1.424-9.456 3.077-14.02A74.577 74.577 0 0 0 0 0Z"
     style="fill:#fff;fill-opacity:1;fill-rule:nonzero;stroke:none"
     transform="matrix(5.56111 .9942 .98057 -5.6384 387.857 655.948)"
     id="path17" />
  <path
     d="M0 0c-.4-.008-1.222 0-1.222 0a42.67 42.67 0 0 0-.612-1.058A159.93 159.93 0 0 1-2.445 0c-.4-.008-1.222 0-1.222 0 .212.345.611 1.059.611 1.059-.196.345-.611 1.058-.611 1.058.415-.008 1.222 0 1.222 0 .212.345.611 1.058.611 1.058.212-.36.612-1.058.612-1.058.415-.008 1.222 0 1.222 0a42.643 42.643 0 0 0-.611-1.058L0 0Z"
     style="fill:#fff;fill-opacity:1;fill-rule:nonzero;stroke:none"
     transform="matrix(5.56111 .9942 .98057 -5.6384 358.268 487.787)"
     id="path18" />
  <path
     d="M0 0c-.4-.008-1.222 0-1.222 0a42.643 42.643 0 0 0-.611-1.058C-2.029-.713-2.445 0-2.445 0c-.4-.008-1.222 0-1.222 0 .212.345.611 1.059.611 1.059-.196.345-.611 1.058-.611 1.058.415-.008 1.222 0 1.222 0 .212.345.612 1.058.612 1.058.212-.36.611-1.058.611-1.058.415-.008 1.222 0 1.222 0-.196-.36-.611-1.058-.611-1.058L0 0Z"
     style="fill:#fff;fill-opacity:1;fill-rule:nonzero;stroke:none"
     transform="matrix(5.56111 .9942 .98057 -5.6384 454.624 505.013)"
     id="path19" />
  <path
     d="M0 0c.008.028 0 .107 0 .107a3.13 3.13 0 0 0 2.422 3.045c.008.443 0 1.353 0 1.353-.371-.008-1.137 0-1.137 0 .008.413 0 1.262 0 1.262.387-.008 1.137 0 1.137 0 .008.425 0 1.298 0 1.298.489-.008 1.442 0 1.442 0 .008-.44 0-1.298 0-1.298.387-.008 1.136 0 1.136 0 .008-.429 0-1.262 0-1.262-.37-.008-1.136 0-1.136 0 .008-.458 0-1.349 0-1.349C5.338 2.829 6.204 1.51 6.281 0c.414-.008 1.217 0 1.217 0 .008-.546 0-1.614 0-1.614-.447-.008-1.365 0-1.365 0 .008-2.89 0-8.647 0-8.647.991-.008 2.949 0 2.949 0 .008 2.875 0 8.647 0 8.647 1.825-.008 5.449 0 5.449 0 .008-2.89 0-8.647 0-8.647.58-.008 1.716 0 1.716 0 .008-.564 0-1.667 0-1.667-8.73-.008-26.209 0-26.209 0 .008.548 0 1.667 0 1.667.58-.008 1.716 0 1.716 0 .008 2.875 0 8.647 0 8.647 1.825-.008 5.449 0 5.449 0 .008-2.89 0-8.647 0-8.647.991-.008 2.949 0 2.949 0 .008 2.875 0 8.647 0 8.647-.447-.008-1.365 0-1.365 0 .008.53 0 1.614 0 1.614H0z"
     style="fill:#fff;fill-opacity:1;fill-rule:nonzero;stroke:none"
     transform="matrix(5.56111 .9942 .98057 -5.6384 378.332 493.992)"
     id="path20" />
  <path
     style="font-variation-settings:normal;opacity:1;vector-effect:none;fill:#00709c;fill-opacity:1;stroke:#280b0b;stroke-width:4.18151;stroke-linecap:butt;stroke-linejoin:miter;stroke-miterlimit:4;stroke-dasharray:none;stroke-dashoffset:0;stroke-opacity:1;stop-color:#000;stop-opacity:1"
     d="M104.445 17.352C75.971 18.739 50.092 33.704 29.023 51.99c-3.512 5.384 6.933 3.723 9.85 6.02 27.355 7.456 54.096 16.963 81.316 24.893 16.823 4.72 33.362 10.605 50.346 14.642l8.09-.42c2.264-18.097-.125-38.318-12.885-52.3-14.895-17.776-38.165-28-61.295-27.473Zm29.91 69.77c-3.305-1.1-3.032-.695 0 0zm-5.601-1.614-14.441-4.315c4.79 1.512 9.507 3.308 14.44 4.315zm-14.441-4.315c-3.126-1.327-2.332-.364 0 0zM89.626 73.76l-.983-.358c-69.913-21.239-68.356-20.714.983.358Zm0 0c3.055 1.151 7.638 2.228 2.085.634zm8.77 2.666c2.032.673 3.945 1.11 0 0z"
     transform="matrix(1.61365 -.44558 .44558 1.61365 333.56 132.614)"
     id="path21" />
  <path
     style="fill:#00709c;fill-opacity:1;stroke:#280b0b;stroke-width:4.18151;stroke-linecap:butt;stroke-linejoin:miter;stroke-miterlimit:4;stroke-dasharray:none;stroke-opacity:1"
     d="M27.93 54.855c-6.094.07-13.09 4.254-15.78 6.828C6.894 66.38 4.212 73.76 1.724 80.48-.263 85.298-1.588 91.179-.028 95.933c2.423 1.027 5.48-.078 7.723-1.418 5.542-4.202 12.737-4.193 19.35-3.653C46.076 93.44 65 97.901 82.64 105.636c14.153 4.858 28.071 10.324 42.193 15.267 11.824 3.664 23.208 9.358 35.602 10.745 6.44.054 14.389 1.992 19.498-2.989 4.284-6.48 2.367-14.728 3.398-22.039 1.448-4.89-.148-7.54-3.037-8.863-2.889-1.322-7.072-1.317-10.8-.893-11.744-.787-22.876-5.324-33.686-9.7C115.449 78.76 95.26 69.798 74.24 63.125c-9.762-3.817-20.189-4.444-30.207-7.158-6.526-1.377-9.876-.956-14.899-1.072a12.57 12.57 0 0 0-1.205-.041z"
     transform="matrix(1.61365 -.44558 .44558 1.61365 333.56 132.614)"
     id="path22" />
  <path
     style="opacity:.6;fill:#165770;fill-opacity:1;stroke-width:.906003"
     d="M176.978 65.776c-4.838-22.065-22.165-32.566-42.936-40.642 10.86 8.07 12.36 23.33 9.324 35.607-1.144 6.155.284 1.232-3.058 6.649-5.424 4.888-11.901 1.713-17.966.774-26.137-6.91-49.565-15.808-76.947-15.323-4.7 1.003 6.049 2.423 7.687 3.093 32.875 5.93 65.237 23.969 99.896 34.803 11.559 4.185 16.629 4.515 24.992 3.96 3.6-5.484.304-9.902.525-16.036-.227-1.802-1.147-11.107-1.517-12.885z"
     transform="matrix(1.61365 -.44558 .44558 1.61365 333.56 132.614)"
     id="path23" />
  <path
     style="fill:#32a3cf;fill-opacity:1;stroke-width:1.0164"
     d="M.657 95.282c-3.464-4.473 6.576-19.98 13.32-27.857 5.31-5.915 13.393-8.393 21.14-8.637 6.005-.286 11.865.109 17.775 1.14-7.584-1.94-15.608-4.112-23.465-4.277-5.57-.029-10.926 1.864-15.555 5.07C6.542 67.462 2.577 77.098.61 86.69c-.905 3.252-.737 5.692-.052 8.964 0-.453.054.08.1-.371z"
     transform="matrix(1.61365 -.44558 .44558 1.61365 333.56 132.614)"
     id="path24" />
  <path
     style="opacity:.6;fill:#076184;fill-opacity:1"
     d="M1.884 95.517c3.07.198 4.178-.546 9.103-3.883 10.742-3.37 17.303-.81 26.03.105 32.91 6.476 63.66 20.39 95.222 31.281 13.61 4.832 28.114 10.617 42.817 7.733 8.186-4.725 4.667-15.404 6.658-22.988 1.346-8.07-6.038-12.128-12.73-9.439-12.434-.673-24.252-5.056-35.704-9.63-2.475 7.65-7.422 16.782-16.48 17.235-11.447-.805-21.258-7.535-32.206-10.335-18.878-5.976-38.472-9.417-58.025-12.278-8.13-.706-17.487-.952-24.085 4.613-5.148 5.17-1.42 5.998-.6 7.586z"
     transform="matrix(1.61365 -.44558 .44558 1.61365 333.56 132.614)"
     id="path25" />
  <path
     style="opacity:.4;fill:#080a0f;fill-opacity:1;stroke-width:.906003"
     d="M54.165 61.071c-1.283.51-1.974 1.325-2.704 2.326-2.008 2.743-3.8 5.633-5.56 8.493-3.314 5.384-5.961 11.35-7.498 17.288-.209.814 1.132-.038 1.276-.41 1.885-4.815 3.642-9.615 6.026-14.275 1.122-2.19 2.468-4.304 3.807-6.404 1.319-2.074 2.49-5.014 4.62-6.599.107-.076.423-.576.033-.419zM65.982 64.1l-.187-.132c-.293-.21-.942.409-.75.66.118.151-2.92 4.482-3.23 5.052-1.517 2.77-2.75 5.647-4.249 8.427-2.398 4.433-5.174 9.564-6.116 14.405-.146.732 1.506-.265 1.626-.675 1.404-4.732 3.621-9.423 5.922-13.888 2.324-4.51 4.37-9.129 6.962-13.54.046-.076.13-.232.022-.31zM77.622 67.01c.04-.196-.296-.062-.362-.013-1.178.806-1.77 2.452-2.46 3.543-1.712 2.707-3.324 5.41-4.793 8.215-2.625 5.02-6.612 10.314-7.45 15.84.004-.006.012-.005.016-.009-.021.563 1.495-.095 1.616-.809.91-5.305 4.684-10.302 7.163-15.168 1.25-2.452 2.506-4.905 3.971-7.27.667-1.08 1.119-2.277 1.83-3.333.28-.417.357-.613.337-.695a.41.41 0 0 0 .1-.15c.01-.051.02-.1.032-.15zM86.169 71.876c-.853 1.785-1.493 2.122-2.417 3.928-1.352 2.653-2.879 5.35-4.566 7.86-3.084 4.593-6.372 9.642-7.743 14.84-.07.255-.03.453.337.451h.181c.5-.004 1.769-1.246 1.028-1.372.354.06 2.71-5.766 2.903-6.17 1.46-3.03 3.396-5.924 5.272-8.78 1.308-1.985 2.44-4.185 3.473-6.28.956-1.942 1.937-2.295 2.528-4.311.125-.432-.91-.343-.996-.166zM103.548 77.268c-2.855 4.94-6.514 9.58-9.426 14.516-1.242 2.103-2.44 4.237-3.53 6.401-.97 1.935-1.503 4.351-2.74 6.156-.32.468.262.532.617.268 1.224-.896 1.372-2.202 1.94-3.448 1.331-2.936 2.907-5.775 4.497-8.616 2.89-5.17 7.076-10.012 9.297-15.42.167-.409-.56-.024-.655.143zM110.414 80.119c-1.542 5.294-5.095 10.302-7.979 15.14a174.758 174.758 0 0 0-3.952 7.042c-.512.953-1.008 1.959-1.566 2.89-.222.38-.588 1.498-.836 1.704-.415.347-.553 1.293.304.795 1.266-.74 1.6-2.112 2.259-3.225 1.641-2.763 3.011-5.653 4.613-8.436 1.742-3.026 3.514-6.033 5.19-9.08 1.17-2.122 2.458-4.732 2.609-7.094.023-.315-.599.117-.642.264zM117.546 83.92c-1.654 5.036-4.935 9.695-7.464 14.436-1.349 2.529-2.774 4.998-4.362 7.427-.598.918-1.039 1.851-1.591 2.788-.668 1.128-1.571 1.18-.067.648-.507.181-1.55 1.564-.476 1.244.995-.296 1.384-1.368 1.866-2.038 1.856-2.592 3.393-5.533 4.936-8.28 1.794-3.192 3.438-6.451 5.217-9.652 1.197-2.15 2.455-4.44 2.607-6.849.02-.332-.62.132-.666.276zM124.247 86.457c-.196-.055-.595.299-.444.445.86.867-.59 3.656-.965 4.606-1.142 2.897-2.662 5.715-4.332 8.418-1.572 2.533-3.053 5.105-4.623 7.637-1.094 1.767-2.601 3.505-3.17 5.468-.24.83 1.171-.033 1.323-.423.87-2.27 16.377-25.025 12.21-26.15zM131.948 89.027c-.066-.24-.682.222-.645.434.842 4.87-2.71 9.899-4.639 14.255-1.069 2.419-1.988 4.875-2.994 7.313-.706 1.708-1.37 4.423-2.68 5.865-.586.64.22.764.73.31 1.177-1.052 1.494-2.63 2.054-3.96 1.274-3.036 2.312-6.233 3.796-9.194 2.176-4.345 5.746-10.117 4.378-15.023zM138.733 91.133c-.213-.214-.894.371-.762.589 1.284 2.152-.077 5.307-.754 7.474a62.308 62.308 0 0 1-2.665 7.012c-.985 2.189-2.006 4.331-2.876 6.558-.69 1.763-1.386 4.205-2.721 5.756-.162.163-.278.324-.297.433-.01.048-.015.097-.028.147-.119.713 1.184-.154 1.314-.29 1.232-1.274 1.762-3.163 2.477-4.678 1.306-2.771 2.339-5.632 3.637-8.412 1.198-2.566 2.39-5.38 2.897-8.125.375-2.025 1.598-4.666-.222-6.464zM146.362 95.062c-.073-.252-.683.22-.676.396.258 4.737-2.4 9.469-4.418 13.758a373.259 373.259 0 0 0-3.12 6.772c-.87 1.95-1.228 4.664-2.569 6.39-.65.838.464.736.923.178 1.228-1.483 1.512-3.471 2.191-5.178 1.013-2.544 2.199-5.04 3.351-7.54 1.97-4.287 5.667-9.975 4.318-14.776zM152.29 98.237c-.103-.232-.665.216-.607.413 1.53 5.283-1.499 9.579-3.755 14.3-1.936 4.053-4.091 8.662-4.875 13.003-.108.588 1.23-.2 1.32-.547 1.338-5.233 3.522-10.746 6.136-15.614 2.02-3.76 3.575-7.512 1.781-11.555zM160.087 98.14c0-.001 0-.003.005-.007.2-.287-.086-.252-.313-.147-.255.045-.659.394-.485.596 1.76 2.08-.649 6.09-1.342 8.22-.771 2.374-1.718 4.712-2.594 7.06-1.508 4.052-3.44 8.75-3.591 13.04-.027.732 1.363-.349 1.449-.725 1.292-5.741 3.204-11.304 5.057-16.923.766-2.321 4.419-8.819 1.814-11.113zM165.545 100.89c-.195-.165-.693.29-.605.466 1.138 2.246-.343 5.062-1.054 7.258-.816 2.52-1.611 5.047-2.41 7.572-1.315 4.152-2.47 8.347-2.957 12.649-.072.655 1.353-.286 1.426-.714.875-5.319 2.287-10.435 3.908-15.614.775-2.47 1.54-4.944 2.284-7.423.412-1.385.737-3.085-.592-4.194zM171.395 101.317c-.147-.181-.717.3-.627.485 1.193 2.437.04 5.202-.818 7.57-.85 2.348-1.712 4.677-2.381 7.073-1.119 4.013-1.524 8.027-2.287 12.058-.134.16-.224.31-.223.407.002.188.044.258.199.398.505.454 1.402-.707 1.47-.999.431-1.796.633-3.837.764-5.68.224-3.132 1.366-6.408 2.303-9.432 1.033-3.334 4.272-8.552 1.6-11.88zM43.235 58.22c-5.136.212-8.337 7.567-9.975 10.626-1.567 2.927-2.941 5.934-4.38 8.908-.737 1.523-1.35 3.103-1.89 4.683-.482 1.4-.451 3.053-1.088 4.41-.373.796 1.133.05 1.336-.295.817-1.398.993-3.12 1.386-4.64.642-2.485 2.026-4.902 3.152-7.248 1.252-2.612 2.519-5.22 3.934-7.774 1.555-2.812 3.552-6.915 7.243-8.113.154-.052.7-.573.282-.557zM33.682 56.402c-6.107.605-9.932 5.808-12.784 9.845-2.084 2.951-3.977 6.05-5.544 9.221-1.285 2.598-3.316 6.045-2.936 8.948.065.485 1.56-.47 1.494-1.007-.28-2.33 1.506-5.314 2.45-7.438 1.137-2.564 2.703-5.127 4.323-7.497 1.577-2.31 3.093-4.545 5.048-6.662 1.371-1.489 2.9-2.874 4.818-3.904.942-.504 1.99-.63 2.954-1.042.112-.047.523-.5.177-.464zM94.562 74.823c-1.106 2.791-3.104 5.29-4.836 7.823-1.783 2.6-3.177 5.317-4.75 8.002-1.394 2.37-2.845 4.712-4.215 7.091-.273.479-.671 1.164-.749 1.693-.074.476-.423.755-.502.814.056-.036.25-.153.711-.364-.398.182-1.296 1.439-.276 1.136.71-.214 1.3-.843 1.381-1.473.378-2.76 2.904-5.72 4.404-8.126 1.832-2.935 3.312-5.996 5.22-8.904 1.656-2.53 3.662-5.08 4.28-7.967.068-.31-.606.13-.668.275zM121.276 20.406c-1.104 2.934-1.304 6.226-2.383 9.288-3.524 12.884-7.436 25.717-12.196 38.348-1.42 3.653-.44 1.406-1.871 5.051-.275 3.25 6.01-13.006 6.584-14.898 3.668-10.569 6.995-21.224 9.61-31.988.356-1.913.77-3.892.256-5.801zM123.762 20.734c-1.047.924.183 2.935-.084 4.277.564 11.36-2.62 22.58-5.357 33.682-2.1 8.011-4.803 14.964-4.542 18.46 3.48-5.51 7.993-26.988 9.37-36.037.924-5.62 2.394-11.288 1.385-16.95a24.054 24.054 0 0 0-.772-3.432zM129.463 26.823c-.548-1.657-.257-4.157-2.567-4.889 2.068 5.57 2.092 11.479 1.375 17.259-.975 9.38-1.66 18.8-3.58 28.104-1.099 5.042-3.236 12.267-2.15 12.136 4.596-9.717 5.837-25.934 6.674-37.011.477-5.185 1.232-10.444.248-15.6zM132.675 23.4c-.774 1.819 1.602 3.428 1.523 5.333 1.77 6.669 1.513 13.569 1.698 20.373-.01 10.907-.325 21.786-3.04 32.531-.437 1.993.194-.598-.175 1.412.117 2.427 1.412.985.91-.073 2.209-9.232 3.26-15.963 3.406-25.355.266-8.695.33-17.424-.686-26.07-.478-2.888-1.36-5.86-3.636-8.15zM118.274 21.25c-3.324 6.869-5.667 14.004-8.438 21.023-3.574 9.328-6.423 16.706-9.842 26.071-.672 2.066.492-.333.166 1.791 3.016-1.969 6.478-16.676 8.312-21.285 3.284-8.275 6.273-16.623 9.342-24.948.37-.845.69-1.758.46-2.652zM115.348 19.588c-10.46 2.494-18.208 9.378-24.718 16.23-8.855 8.979-17.806 22.599-17.925 24.385C75.043 58.31 88.324 38.248 99.75 28.59c4.506-3.565 9.723-6.57 15.498-8.546-.024-.026.491-.477.099-.456zM116.778 20.333c-5.667 3.632-8.653 9.162-12.281 14.086-7.255 10.696-11.05 17.492-15.363 29.164-.43 1.725-1.002.948-.294 2.329 2.106-1.594.183.397 1.458-1.645 4.31-10.777 7.597-18.487 14.431-28.419 3.503-5.366 7.089-10.824 12.252-15.268.102-.104-.002-.478-.203-.247z"
     transform="matrix(1.61365 -.44558 .44558 1.61365 333.56 132.614)"
     id="path26" />
  <path
     style="fill:#32a3cf;fill-opacity:1;stroke-width:.838409"
     d="M39.975 53.853c8.082-13.387 23.372-22.64 38.642-27.858 12.83-4.385 27.352-7.468 40.778-6.116-3.067-.924-5.257-1.054-8.496-1.394-17.847-1.868-36.41 5.115-52.532 12.763-7.61 4.841-14.601 10.175-20.933 16.387-4.77 4.679 3.78-3.155-6.887 5.498 2.95-1.112 7.471-.326 9.934.008z"
     transform="matrix(1.61365 -.44558 .44558 1.61365 333.56 132.614)"
     id="path27" />
  <path
     style="opacity:.4;fill:#080a0f;fill-opacity:1;stroke-width:.906003"
     d="M113.167 18.876c-7.066.003-13.162 3.648-18.866 6.752-13.848 8.52-23.15 19.49-29.937 32.412-.502-.283.601-.194.736-.458 5.213-8.271 24.1-29.102 37.933-35.295 3.008-1.879 7.665-1.358 10.134-3.41z"
     transform="matrix(1.61365 -.44558 .44558 1.61365 333.56 132.614)"
     id="path28" />
  <path
     style="opacity:.4;fill:#080a0f;fill-opacity:1;stroke-width:.906003"
     d="M106.02 18.926c-9.635.71-18.096 5.88-26.285 10.552-12.217 7.753-18.649 12.596-25.621 25.257.314.384-.168 1.773.73 1.175 7.572-12.138 17-21.509 29.74-28.19 6.651-3.749 13.71-7.065 21.267-8.398.129-.047.299-.26.17-.396z"
     transform="matrix(1.61365 -.44558 .44558 1.61365 333.56 132.614)"
     id="path29" />
  <path
     style="opacity:.4;fill:#080a0f;fill-opacity:1;stroke-width:.906003"
     d="M99.06 18.213c-8.732 1.868-17.302 4.805-24.967 9.446-9.97 5.35-19.179 12.541-25.5 22.038a88.9 88.9 0 0 0-3.726 5.883c1.49-1.624 7.2-8.823 10.482-12.163 7.373-7.763 16.23-14.08 25.954-18.557 5.437-2.572 11.169-4.471 16.979-6.002l.425-.28zM139.23 26.292c-.623 1.875 1.878 3.284 1.955 5.19 2.311 6.5 2.622 13.397 3.366 20.164.885 10.87 1.261 21.863-.561 32.795-.273 2.022.244.299-.231 2.283.316 2.409 1.967.953 1.38-.061 1.443-9.382 1.835-17.25 1.209-26.622-.45-8.687-1.102-17.392-2.825-25.925-.714-2.84-1.837-5.729-4.294-7.824zM145.437 29.752c-.467 1.92 2.139 3.12 2.37 5.014 2.832 6.291 3.7 13.141 4.99 19.825 1.765 10.763 3.031 21.689 2.1 32.732-.107 2.038.369 1.036.057 3.053.51 2.375 1.815.588 1.148-.375.677-9.468.552-17.898-.833-27.188-1.152-8.622-2.508-17.245-4.917-25.61-.942-2.773-2.296-5.562-4.915-7.45zM152.021 34.633c-.247 1.96 2.478 2.858 2.923 4.713 3.525 5.93 5.165 12.637 7.203 19.132 2.972 10.494 5.467 21.206 5.794 32.284.124 2.036.456 1.18.374 3.219.777 2.302 1.97.647 1.198-.235-.4-9.484-1.551-18.305-3.979-27.379-2.121-8.436-4.445-16.85-7.787-24.889-1.25-2.648-2.91-5.265-5.726-6.845zM179.277 99.848c-.147-.182-.717.3-.627.484 1.193 2.438.04 5.202-.818 7.57-.851 2.348-1.712 4.677-2.381 7.074-1.119 4.012-1.524 8.026-2.287 12.057-.134.16-.224.311-.223.408.002.187.044.257.199.397.505.455 1.401-.707 1.47-.998.431-1.797.633-3.838.764-5.68.224-3.133 1.366-6.409 2.303-9.433 1.033-3.333 4.272-8.552 1.6-11.88z"
     transform="matrix(1.61365 -.44558 .44558 1.61365 333.56 132.614)"
     id="path30" />
  <path
     fill="#c38f53"
     d="M552.033 94.189c1.573-2 7.21-.219 5.292-5.888a18.052 18.052 0 0 1-1.182-2.217c-1.104-.745-2.208-1.491-3.658-1.907.475 1.561 1.296 2.792 2.615 4.772-2.486.716-4.752 1.368-7.109 2.12l-.276.297c1.381.831 2.762 1.663 4.318 2.823z"
     style="stroke-width:1.06054"
     id="path31" />
  <path
     fill="#c38f53"
     d="M536.064 82.862c.638.875 1.277 1.75 2.028 2.93 3.035 2.019 5.956 3.734 9.25 5.51.373.063.557-.134.488-.546-3.832-3.047-7.594-5.682-11.459-8.211l-.307.317z"
     style="stroke-width:1.06054"
     id="path32" />
  <path
     fill="#aaaeb0"
     d="M534.346 14.011c.232.198.8.326 1.535.264-.29-.238-.743-.286-1.535-.264z"
     style="stroke-width:1.06054"
     id="path33" />
  <path
     style="font-variation-settings:normal;vector-effect:none;fill:#e1e2e3;fill-opacity:1;stroke:#e1e2e3;stroke-width:.80688;stroke-linecap:butt;stroke-linejoin:miter;stroke-miterlimit:4;stroke-dasharray:none;stroke-dashoffset:0;stroke-opacity:1;stop-color:#000"
     d="M248.154 43.369c3.503-4.02 7.006-8.042 10.972-11.843 3.966-3.802 8.395-7.384 12.896-10.578 4.5-3.195 9.073-6.002 13.861-8.374 4.788-2.371 9.792-4.306 15.134-5.611 5.343-1.306 11.023-1.98 17.013-2.29 5.99-.31 12.29-.253 20.39.562 8.1.816 17.998 2.39 28.207 3.994 10.208 1.603 20.726 3.234 27.616 4.359 6.89 1.125 10.152 1.743 15.777 1.997 5.624.253 13.611.14 20.586.393 6.974.253 12.936.872 19.545 1.49 6.609.62 13.864 1.238 20.52 1.198 6.655-.04 12.71-.74 16.46-1.19 3.75-.45 5.198-.65 12.8-.188 7.604.462 21.363 1.587 31.533 2.43 10.17.844 16.75 1.407 23.331 2.25 6.581.844 13.162 1.969 19.855 3.234 6.693 1.266 13.499 2.672 20.333 4.5 6.834 1.828 13.696 4.078 18.628 5.614 4.932 1.537 7.934 2.36 9.831 3.8 1.897 1.442 2.688 3.5 3.083 4.528.396 1.028.396 1.028-.917.5-1.313-.527-3.94-1.582-8.276-2.974-4.336-1.392-10.383-3.12-14.763-4.146-4.38-1.025-7.094-1.347-9.052-1.4-1.957-.053-3.158.163-4.986.022-1.828-.14-4.283-.638-7.224-1.334-2.941-.697-6.369-1.592-10.897-2.183-4.528-.59-10.156-.876-15.8-1.22-5.643-.346-11.302-.75-18.052-.89-6.75-.141-14.589-.018-20.86.192-6.272.21-10.975.508-17.077.761-6.103.253-13.605.462-19.437.82-5.832.357-9.994.863-14.55 1.37-4.556.506-9.506 1.012-13.696 1.518-4.19.506-7.621 1.012-10.373 1.095-2.752.083-4.825-.258-7.497-1.27-2.671-1.013-5.941-2.697-8.233-3.941-2.291-1.245-3.604-2.05-5.812-2.653-2.208-.605-5.31-1.008-8.167-1.83-2.856-.821-5.465-2.06-9.304-3.51-3.839-1.448-8.906-3.106-13.437-4.386-4.53-1.279-8.524-2.179-13.445-2.938-4.922-.76-10.771-1.378-15.65-1.86-4.878-.482-8.785-.828-12.503-1.1-3.718-.273-7.246-.472-11.434-.785-4.187-.312-9.032-.738-13.076-.831-4.044-.093-7.287.146-10.961.66-3.674.513-7.78 1.3-11.476 2.085-3.696.785-6.982 1.566-9.823 2.635-2.84 1.069-5.235 2.425-7.923 4.171-2.687 1.747-5.668 3.884-8.34 5.712-2.672 1.828-5.034 3.347-7.453 5.062-2.418 1.716-4.893 3.628-6.946 5.26-2.053 1.63-3.684 2.98-5.314 4.33"
     id="path34" />
  <path
     style="font-variation-settings:normal;mix-blend-mode:darken;vector-effect:none;fill:#9b9ea1;fill-opacity:.360784;stroke:none;stroke-width:.806594;stroke-linecap:butt;stroke-linejoin:miter;stroke-miterlimit:4;stroke-dasharray:none;stroke-dashoffset:0;stroke-opacity:0;stop-color:#000"
     d="M391.258 53.097c1.685 1.476 5.056 4.428 8.5 7.694 3.445 3.267 6.964 6.848 9.833 9.519 2.869 2.67 5.087 4.43 7.02 5.768 1.934 1.337 3.582 2.252 5.202 3.195 1.62.944 3.21 1.916 5.11 2.69 1.9.775 4.11 1.351 7.884 2.324 3.774.973 9.113 2.343 14.076 3.4 4.964 1.057 9.552 1.8 14.082 2.004 4.53.203 9.001-.133 14.431-1.108 5.43-.975 11.817-2.588 16.91-3.799 5.094-1.21 8.893-2.017 12.424-2.875 3.53-.857 6.791-1.766 9.304-2.19 2.514-.423 4.279-.36 5.9.074 1.62.435 3.094 1.243 5.693 2.296 2.6 1.053 6.323 2.351 9.393 3.715 3.07 1.364 5.486 2.795 7.653 4.03 2.166 1.237 4.082 2.28 5.296 3.027 1.215.748 1.727 1.202 2.652 1.975.924.774 2.261 1.866 3.618 2.53 1.358.664 2.736.9 3.896.85 1.16-.05 2.101-.387 2.86-.644.76-.257 1.339-.435 1.322-1.125-.016-.689-.628-1.889-3.522-6.894-2.895-5.004-8.072-13.812-12.162-20.505-4.09-6.692-7.09-11.268-9.467-14.611-2.376-3.343-4.127-5.454-5.148-7.132-1.02-1.68-1.311-2.927-1.423-3.921-.112-.994-.045-1.733.325-2.372.37-.64 1.042-1.177 2.571-1.446 1.53-.27 3.917-.27 12.928-.802 9.012-.532 24.647-1.597 32.312-2.203 7.666-.605 7.361-.75 5.46-1.142-1.9-.392-5.397-1.031-8.254-1.57-2.858-.537-5.077-.974-10.574-1.512s-14.271-1.177-21.03-1.48c-6.757-.302-11.497-.268-16.944-.167-5.446.1-11.599.269-18.02.521-6.422.252-13.112.588-19.752.874-6.64.286-13.23.521-17.835.84-4.606.32-7.229.724-10.944 1.16-3.715.438-8.522.908-12.07 1.295-3.546.387-5.832.69-8.438.706-2.605.017-5.53-.252-7.816-.757-2.286-.504-3.933-1.244-6.354-2.538-2.42-1.294-5.614-3.144-7.993-4.248-2.378-1.105-3.94-1.466-5.128-1.607-1.188-.141-2.002-.063-3.725.991-1.724 1.055-4.358 3.086-6.616 5.043-2.258 1.957-4.14 3.84-6.599 6.936-2.459 3.096-5.493 7.406-7.01 9.56-1.517 2.155-1.517 2.155.169 3.63z"
     id="path35" />
  <path
     style="font-variation-settings:normal;vector-effect:none;fill:#000;fill-opacity:1;stroke:#000;stroke-width:1.06054;stroke-linecap:butt;stroke-linejoin:miter;stroke-miterlimit:4;stroke-dasharray:none;stroke-dashoffset:0;stroke-opacity:1;stop-color:#000"
     d="m882.888 163.968-31.752-20.998-22.755-13.514-27.8-15.824-3.567 8.972-15.337-4.275-6.574-2.595-52.829-23.617-8.046-3.394-10.246-3.835 1.039 5.19 7.424 2.481 64.665 29.139 47.467 24.015 21.02 9.477 27.98 10.158 4.966 1.509 1.76-.126 1.949-1.257.636-1.506"
     id="path36" />
  <path
     style="font-variation-settings:normal;vector-effect:none;fill:#e1e2e3;fill-opacity:1;stroke:#e1e2e3;stroke-width:.87746;stroke-linecap:butt;stroke-linejoin:miter;stroke-miterlimit:4;stroke-dasharray:none;stroke-dashoffset:0;stroke-opacity:1;stop-color:#000"
     d="M703.055 83.516c-1.887-1.621-5.661-4.863-10.569-7.47-4.908-2.607-10.948-4.578-15.93-6.982-4.983-2.404-8.908-5.24-12.235-7.3-3.327-2.059-6.055-3.342-8.592-4.423-2.538-1.08-4.885-1.958-6.828-2.452-1.942-.494-3.478-.605-4.034-.46-.556.144-.133.544 1.515 1.792 1.648 1.247 4.52 3.342 10.975 7.267 6.456 3.924 16.495 9.678 25.885 15.095s18.128 10.496 21.791 12.08c3.663 1.583 2.249-.33 1.388-1.833-.862-1.503-1.17-2.598-1.325-3.146-.154-.547-.154-.547-2.041-2.168z"
     id="path37" />
  <path
     style="font-variation-settings:normal;vector-effect:none;fill:#909396;fill-opacity:1;stroke:#909396;stroke-width:1.06054;stroke-linecap:butt;stroke-linejoin:miter;stroke-miterlimit:4;stroke-dasharray:none;stroke-dashoffset:0;stroke-opacity:1;stop-color:#000"
     d="m800.212 113.588-38.18-21.196-30.885-15.898-35.481-18.437-29.336-13.69-27.914-12.446-26.296-9.582-30.18-4.837-18.666-2.14-27.015-1.268-14.653-.841-27.83 3.372 55.532 3.807 22.791 3.666 31.7 7.12 20.75 7.282 2.372 6.172 19.434 10.59 4.512 2.148 12.196 6.771 28.407 14.905 12.083 5.154 12.265 4.335 37.097 16.597 28.447 12.446 15.546 4.194z"
     id="path38" />
  <path
     style="font-variation-settings:normal;vector-effect:none;fill:#000;fill-opacity:1;stroke:#000;stroke-width:.80688;stroke-linecap:butt;stroke-linejoin:miter;stroke-miterlimit:4;stroke-dasharray:none;stroke-dashoffset:0;stroke-opacity:1;stop-color:#000"
     d="M222.274 71.236c.199-1.674.044-1.286-2.32 1.355-2.363 2.641-6.933 7.536-10.831 12.006-3.898 4.47-7.122 8.517-10.962 13.445-3.84 4.928-8.296 10.736-10.583 14.636-2.286 3.9-2.405 5.893 2.16 3.88 4.564-2.012 13.813-8.028 22.15-13.527 8.339-5.498 15.763-10.476 17.453-13.37 1.69-2.896-2.361-3.704-4.713-4.903-2.351-1.198-3.004-2.787-3.054-5.45-.05-2.662.502-6.398.7-8.072z"
     id="path39" />
  <path
     style="font-variation-settings:normal;vector-effect:none;fill:url(#b);fill-opacity:1;stroke:url(#linearGradient1714);stroke-width:.80688;stroke-linecap:butt;stroke-linejoin:miter;stroke-miterlimit:4;stroke-dasharray:none;stroke-dashoffset:0;stroke-opacity:1;stop-color:#000"
     d="M222.274 71.236c-3.662 15.635 8.321 15.602 8.321 15.602 10.31-3.412 15.5-8.746 23.066-12.721 26.994-15.849 56.252-27.785 86.487-35.798 14.081-2.738 28.286-5.181 42.596-6.214 5.937 14.168 1.876-.735 12.479-5.337 2.3-1.905 11.073-4.448 3.484-5.43-18.419-5.566-37.652-7.645-56.763-9.06-13.358-.124-26.644-2.91-40.627 1.135-9.922.86-17.922 6.344-26.001 11.747-6.838 4.037-12.93 9.147-19.017 14.176-6.979 2.1-11.75 7.54-16.617 12.56-5.85 5.779-11.879 11.425-17.156 17.766z"
     id="path40" />
  <path
     style="font-variation-settings:normal;vector-effect:none;fill:#e1e2e3;fill-opacity:1;stroke:#e1e2e3;stroke-width:.80688;stroke-linecap:butt;stroke-linejoin:miter;stroke-miterlimit:4;stroke-dasharray:none;stroke-dashoffset:0;stroke-opacity:1;stop-color:#000"
     d="M414.176 25.294c-.043 0-.086 0-.746-.165-.661-.166-1.94-.496-3.568-.858-1.628-.362-3.604-.756-4.842-1.01-1.238-.253-1.739-.366-2.034-.387-.296-.02-.385.05-1.897.58-1.511.531-4.444 1.52-6.705 2.757-2.262 1.235-3.851 2.717-4.879 3.704-1.028.988-1.493 1.483-1.73 1.787-.239.305-.25.42-.333.747a9.049 9.049 0 0 1-.409 1.262 2.84 2.84 0 0 1-.526.818c-.164.178-.302.288-.265.938.038.65.25 1.837.403 2.436.153.598.247.606 1.595 1.645 1.348 1.038 3.947 3.107 5.444 3.592 1.497.485 1.89-.614 2.19-1.307.3-.693.504-.981 1.918-2.492a384.698 384.698 0 0 1 5.837-6.07c1.8-1.825 2.777-2.74 3.694-3.527a24.85 24.85 0 0 1 2.95-2.2c1.174-.753 2.664-1.596 4.156-2.44"
     id="path41" />
  <path
     style="font-variation-settings:normal;mix-blend-mode:darken;vector-effect:none;fill:url(#c);fill-opacity:1;stroke:#e1e2e3;stroke-width:.806594;stroke-linecap:butt;stroke-linejoin:miter;stroke-miterlimit:4;stroke-dasharray:none;stroke-dashoffset:0;stroke-opacity:1;stop-color:#000"
     d="M391.258 53.097c1.685 1.476 5.056 4.428 8.5 7.694 3.445 3.267 6.964 6.848 9.833 9.519 2.869 2.67 5.087 4.43 7.02 5.768 1.934 1.337 3.582 2.252 5.202 3.195 1.62.944 3.21 1.916 5.11 2.69 1.9.775 4.11 1.351 7.884 2.324 3.774.973 9.113 2.343 14.076 3.4 4.964 1.057 9.552 1.8 14.082 2.004 4.53.203 9.001-.133 14.431-1.108 5.43-.975 11.817-2.588 16.91-3.799 5.094-1.21 8.893-2.017 12.424-2.875 3.53-.857 6.791-1.766 9.304-2.19 2.514-.423 4.279-.36 5.9.074 1.62.435 3.094 1.243 5.693 2.296 2.6 1.053 6.323 2.351 9.393 3.715 3.07 1.364 5.486 2.795 7.653 4.03 2.166 1.237 4.082 2.28 5.296 3.027 1.215.748 1.727 1.202 2.652 1.975.924.774 2.261 1.866 3.618 2.53 1.358.664 2.736.9 3.896.85 1.16-.05 2.101-.387 2.86-.644.76-.257 1.339-.435 1.322-1.125-.016-.689-.628-1.889-3.522-6.894-2.895-5.004-8.072-13.812-12.162-20.505-4.09-6.692-7.09-11.268-9.467-14.611-2.376-3.343-4.127-5.454-5.148-7.132-1.02-1.68-1.311-2.927-1.423-3.921-.112-.994-.045-1.733.325-2.372.37-.64 1.042-1.177 2.571-1.446 1.53-.27 3.917-.27 12.928-.802 9.012-.532 24.647-1.597 32.312-2.203 7.666-.605 7.361-.75 5.46-1.142-1.9-.392-5.397-1.031-8.254-1.57-2.858-.537-5.077-.974-10.574-1.512s-14.271-1.177-21.03-1.48c-6.757-.302-11.497-.268-16.944-.167-5.446.1-11.599.269-18.02.521-6.422.252-13.112.588-19.752.874-6.64.286-13.23.521-17.835.84-4.606.32-7.229.724-10.944 1.16-3.715.438-8.522.908-12.07 1.295-3.546.387-5.832.69-8.438.706-2.605.017-5.53-.252-7.816-.757-2.286-.504-3.933-1.244-6.354-2.538-2.42-1.294-5.614-3.144-7.993-4.248-2.378-1.105-3.94-1.466-5.128-1.607-1.188-.141-2.002-.063-3.725.991-1.724 1.055-4.358 3.086-6.616 5.043-2.258 1.957-4.14 3.84-6.599 6.936-2.459 3.096-5.493 7.406-7.01 9.56-1.517 2.155-1.517 2.155.169 3.63z"
     id="path42" />
  <path
     style="font-variation-settings:normal;vector-effect:none;fill:#ff8507;fill-opacity:1;stroke:#ff8507;stroke-width:.80688;stroke-linecap:butt;stroke-linejoin:miter;stroke-miterlimit:4;stroke-dasharray:none;stroke-dashoffset:0;stroke-opacity:1;stop-color:#000"
     d="M410.113 44.706a40.643 40.643 0 0 0-3.032-.47 33.993 33.993 0 0 0-3.864-.176c-1.318.008-2.652.073-4.06.026-1.41-.047-2.893-.206-4.076-.7-1.183-.492-2.066-1.319-2.99-1.909-.924-.59-1.889-.944-2.798-1.515-.908-.571-1.761-1.36-2.212-1.64-.45-.282-.498-.056-.828.442-.33.499-.942 1.271-1.561 2.035-.62.764-1.247 1.52-1.762 2.317a9.57 9.57 0 0 0-1.19 2.582c-.273.95-.418 2.011-.53 3.346a81.724 81.724 0 0 0-.234 4.432c-.04 1.489-.04 2.856.008 3.652.049.796.145 1.022.265.958.12-.064.266-.418 1.335-1.802 1.07-1.384 3.065-3.797 4.513-5.076 1.448-1.28 2.348-1.424 4.705-1.642 2.357-.217 6.17-.506 9.283-.595 3.113-.088 5.526.024 7.256.04 1.73.016 2.775-.064 3.393-.617.617-.553.806-1.58.855-2.223.048-.644-.044-.904-.382-1.066-.337-.162-.918-.225-1.208-.256-.29-.032-.29-.032-.886-.143z"
     id="path43" />
  <path
     style="font-variation-settings:normal;vector-effect:none;fill:#f98706;fill-opacity:1;stroke:#f98706;stroke-width:.80688;stroke-linecap:butt;stroke-linejoin:miter;stroke-miterlimit:4;stroke-dasharray:none;stroke-dashoffset:0;stroke-opacity:1;stop-color:#000"
     d="M539.05 73.522c-1.854.66-5.563 1.979-7.416 2.805-1.854.827-1.854 1.16-1.688 1.462.166.303.5.576 1.438 1.313.94.737 2.485 1.938 4.03 3.138 1.545 1.2 3.09 2.401 5.159 3.827 2.068 1.427 4.659 3.08 6.727 4.494 2.069 1.414 3.614 2.59 4.642 3.215 1.028.624 1.539.695 1.818.517.28-.177.328-.605.138-1.26-.19-.653-.618-1.533-.809-2.103-.19-.57-.143-.832.178-.88.32-.048.915.118 1.498.362.582.244 1.153.564 1.789.778.635.214 1.337.321 1.67.155.333-.166.297-.606.09-.992-.209-.387-.59-.72-2.235-2.49-1.647-1.772-4.559-4.981-6.585-7.174-2.027-2.193-3.168-3.37-4.238-4.416-1.07-1.046-2.068-1.961-2.704-2.562-.636-.6-.91-.885-1.124-.974-.214-.089-.369.018-.446.071-.076.053-.076.054-1.931.714z"
     id="path44" />
  <path
     style="font-variation-settings:normal;mix-blend-mode:darken;vector-effect:none;fill:#000;fill-opacity:0;stroke:none;stroke-width:.80688;stroke-linecap:butt;stroke-linejoin:miter;stroke-miterlimit:4;stroke-dasharray:none;stroke-dashoffset:0;stroke-opacity:1;stop-color:#000"
     d="M391.258 53.097c1.685 1.476 5.056 4.428 8.5 7.694 3.445 3.267 6.964 6.848 9.833 9.519 2.869 2.67 5.087 4.43 7.02 5.768 1.934 1.337 3.582 2.252 5.202 3.195 1.62.944 3.21 1.916 5.11 2.69 1.9.775 4.11 1.351 7.884 2.324 3.774.973 9.113 2.343 14.076 3.4 4.964 1.057 9.552 1.8 14.082 2.004 4.53.203 9.001-.133 14.431-1.108 5.43-.975 11.817-2.588 16.91-3.799 5.094-1.21 8.893-2.017 12.424-2.875 3.53-.857 6.791-1.766 9.304-2.19 2.514-.423 4.279-.36 5.9.074 1.62.435 3.094 1.243 5.693 2.296 2.6 1.053 6.323 2.351 9.393 3.715 3.07 1.364 5.486 2.795 7.653 4.03 2.166 1.237 4.082 2.28 5.296 3.027 1.215.748 1.727 1.202 2.652 1.975.924.774 2.261 1.866 3.618 2.53 1.358.664 2.736.9 3.896.85 1.16-.05 2.101-.387 2.86-.644.76-.257 1.339-.435 1.322-1.125-.016-.689-.628-1.889-3.522-6.894-2.895-5.004-8.072-13.812-12.162-20.505-4.09-6.692-7.09-11.268-9.467-14.611-2.376-3.343-4.127-5.454-5.148-7.132-1.02-1.68-1.311-2.927-1.423-3.921-.112-.994-.045-1.733.325-2.372.37-.64 1.042-1.177 2.571-1.446 1.53-.27 3.917-.27 12.928-.802 9.012-.532 24.647-1.597 32.312-2.203 7.666-.605 7.361-.75 5.46-1.142-1.9-.392-5.397-1.031-8.254-1.57-2.858-.537-5.077-.974-10.574-1.512s-14.271-1.177-21.03-1.48c-6.757-.302-11.497-.268-16.944-.167-5.446.1-11.599.269-18.02.521-6.422.252-13.112.588-19.752.874-6.64.286-13.23.521-17.835.84-4.606.32-7.229.724-10.944 1.16-3.715.438-8.522.908-12.07 1.295-3.546.387-5.832.69-8.438.706-2.605.017-5.53-.252-7.816-.757-2.286-.504-3.933-1.244-6.354-2.538-2.42-1.294-5.614-3.144-7.993-4.248-2.378-1.105-3.94-1.466-5.128-1.607-1.188-.141-2.002-.063-3.725.991-1.724 1.055-4.358 3.086-6.616 5.043-2.258 1.957-4.14 3.84-6.599 6.936-2.459 3.096-5.493 7.406-7.01 9.56-1.517 2.155-1.517 2.155.169 3.63z"
     fill="none"
     id="path45" />
  <path
     style="font-variation-settings:normal;vector-effect:none;fill:#000;fill-opacity:1;stroke:none;stroke-width:.980488;stroke-linecap:butt;stroke-linejoin:miter;stroke-miterlimit:4;stroke-dasharray:none;stroke-dashoffset:0;stroke-opacity:1;stop-color:#000"
     d="m414.858 30.302 1.607.401 1.267 1.144.834 1.7-.061 2.008-.402 1.36-.773 1.143-1.452.896-2.07-.092-1.175-.711-.989-1.113-.587-1.576.247-2.194.711-1.576 1.453-1.143z"
     id="path46" />
  <metadata
     id="metadata46">
    <rdf:RDF>
      <cc:Work
         rdf:about="">
        <dc:title>Hampuu</dc:title>
        <dc:date>2024-01-15</dc:date>
        <dc:creator>
          <cc:Agent>
            <dc:title>Klaus Dettmer</dc:title>
          </cc:Agent>
        </dc:creator>
      </cc:Work>
    </rdf:RDF>
  </metadata>
</svg>
